<?xml version="1.0" encoding="UTF-8" standalone="no"?>
<!DOCTYPE svg PUBLIC "-//W3C//DTD SVG 1.1//EN" "http://www.w3.org/Graphics/SVG/1.1/DTD/svg11.dtd">
<svg width="100%" height="100%" viewBox="0 0 421 421" version="1.1" xmlns="http://www.w3.org/2000/svg" xmlns:xlink="http://www.w3.org/1999/xlink" xml:space="preserve" xmlns:serif="http://www.serif.com/" style="fill-rule:evenodd;clip-rule:evenodd;stroke-linecap:round;stroke-linejoin:round;stroke-miterlimit:1.5;">
    <g transform="matrix(1,0,0,1,-289.583,-189.583)">
        <g>
            <circle cx="500" cy="400" r="200" style="fill:rgb(109,79,187);stroke:white;stroke-width:20.83px;"/>
            <g transform="matrix(0.707107,0.707107,-0.707107,0.707107,429.289,-236.396)">
                <path d="M500,261.213C500,255.447 497.492,249.967 493.129,246.198C488.766,242.429 482.979,240.744 477.274,241.582C399.673,252.635 340,319.349 340,400C340,488.306 411.694,560 500,560C580.651,560 647.365,500.327 658.399,422.723C659.236,417.024 657.553,411.243 653.788,406.883C650.022,402.524 644.547,400.019 638.787,400.019C638.665,400 638.544,400 638.423,400C628.575,400 620.217,407.224 618.791,416.968C610.565,475.208 560.513,520 500,520C433.77,520 380,466.23 380,400C380,339.487 424.792,289.435 483.029,281.191C492.764,279.766 499.981,271.416 499.981,261.577C500,261.456 500,261.335 500,261.213Z" style="fill:white;"/>
            </g>
            <g transform="matrix(195.446,0,0,195.446,432.864,470)">
                <path d="M0.569,-0.705C0.581,-0.705 0.592,-0.7 0.601,-0.692C0.609,-0.683 0.614,-0.672 0.614,-0.66L0.614,-0.045C0.614,-0.033 0.609,-0.022 0.601,-0.013C0.592,-0.005 0.581,0 0.569,-0L0.567,0C0.542,0 0.522,-0.02 0.522,-0.045L0.522,-0.326L0.164,-0.326L0.164,-0.045C0.164,-0.02 0.144,-0 0.119,0L0.118,-0C0.106,-0 0.095,-0.005 0.086,-0.013C0.078,-0.022 0.073,-0.033 0.073,-0.045L0.073,-0.66C0.073,-0.672 0.078,-0.683 0.086,-0.692C0.095,-0.7 0.106,-0.705 0.118,-0.705L0.119,-0.705C0.144,-0.705 0.164,-0.685 0.164,-0.66L0.164,-0.4L0.522,-0.4L0.522,-0.66C0.522,-0.672 0.527,-0.683 0.535,-0.692C0.544,-0.7 0.555,-0.705 0.567,-0.705L0.569,-0.705Z" style="fill:white;fill-rule:nonzero;"/>
            </g>
        </g>
    </g>
</svg>
